# AST/ASF file generated using VICON BodyLanguage
# -----------------------------------------------
:version 1.10
:name VICON
:units
  mass 1.0
  length 0.45
  angle deg
:documentation
   .ast/.asf automatically generated from VICON data using
   VICON BodyBuilder and BodyLanguage model FoxedUp or BRILLIANT.MOD
:root
   order TX TY TZ RX RY RZ
   axis XYZ
   position 0 0 0  
   orientation 0 0 0 
:bonedata
  begin
     id 1 
     name lhipjoint
     direction 0.612567 -0.751349 0.245431 
     length 2.42285 
     axis 0 0 0  XYZ
  end
  begin
     id 2 
     name lfemur
     direction 0.34202 -0.939693 0  
     length 7.11304  
     axis 0 0 20  XYZ
    dof rx ry rz
    limits (-160.0 20.0)
           (-70.0 70.0)
           (-60.0 70.0)
  end
  begin
     id 3 
     name ltibia
     direction 0.34202 -0.939693 0   
     length 7.84529   
     axis 0 0 20   XYZ
    dof rx
    limits (-10.0 170.0)
  end
  begin
     id 4 
     name lfoot
     direction 0.0779239 -0.214094 0.9737   
     length 1.97176   
     axis -90 7.62852e-016 20   XYZ
    dof rx rz
    limits (-45.0 90.0)
           (-70.0 20.0)
  end
  begin
     id 5 
     name ltoes
     direction 1.53565e-011 -4.21709e-011 1   
     length 0.993197   
     axis -90 7.62852e-016 20   XYZ
    dof rx
    limits (-90.0 20.0)
  end
  begin
     id 6 
     name rhipjoint
     direction -0.665722 -0.709315 0.231701   
     length 2.56642  
     axis 0 0 0  XYZ 
  end
  begin
     id 7 
     name rfemur
     direction -0.34202 -0.939693 0   
     length 7.32108   
     axis 0 0 -20   XYZ
    dof rx ry rz
    limits (-160.0 20.0)
           (-70.0 70.0)
           (-70.0 60.0)
  end
  begin
     id 8 
     name rtibia
     direction -0.34202 -0.939693 0   
     length 7.81254   
     axis 0 0 -20   XYZ
    dof rx
    limits (-10.0 170.0)
 end
 begin
     id 9 
     name rfoot
     direction -0.0832806 -0.228812 0.969902   
     length 2.08278  
     axis -90 -7.62852e-016 -20   XYZ
    dof rx rz
    limits (-45.0 90.0)
           (-20.0 70.0)
  end
  begin
     id 10 
     name rtoes
     direction -1.53589e-011 -4.22086e-011 1   
     length 1.04609   
     axis -90 -7.62852e-016 -20   XYZ
    dof rx
    limits (-90.0 20.0)
  end
  begin
     id 11 
     name lowerback
     direction -0.00506013 0.988403 -0.151766   
     length 2.01978   
     axis 0 0 0   XYZ
    dof rx ry rz
    limits (-20.0 45.0)
           (-30.0 30.0)
           (-30.0 30.0)
  end
  begin
     id 12 
     name upperback
     direction -0.00836389 0.99968 0.0238859   
     length 2.01276   
     axis 0 0 0   XYZ
    dof rx ry rz
    limits (-20.0 45.0)
           (-30.0 30.0)
           (-30.0 30.0)
  end
  begin
     id 13 
     name thorax
     direction -0.00684136 0.995386 0.0957043   
     length 2.07303   
     axis 0 0 0   XYZ
    dof rx ry rz
    limits (-20.0 45.0)
           (-30.0 30.0)
           (-30.0 30.0)
  end
  begin
     id 14 
     name lowerneck
     direction -0.0161045 0.999661 0.0204485   
     length 1.91243   
     axis 0 0 0   XYZ
    dof rx ry rz
    limits (-20.0 45.0)
           (-30.0 30.0)
           (-30.0 30.0)
  end
  begin
     id 15 
     name upperneck
     direction 0.0553583 0.990946 -0.122319   
     length 1.91574   
     axis 0 0 0   XYZ
    dof rx ry rz
    limits (-20.0 45.0)
           (-30.0 30.0)
           (-30.0 30.0)
  end
  begin
     id 16
     name head
     direction 0.0180273 0.998839 -0.0446756  
     length 1.92693  
     axis 0 0 0   XYZ
    dof rx ry rz
    limits (-20.0 45.0)
           (-30.0 30.0)
           (-30.0 30.0)
  end
  begin
     id 17 
     name lclavicle
     direction 0.945646 0.319323 -0.0615358  
     length 4.0076  
     axis 0 0 0   XYZ
    dof ry rz
    limits (-20.0 10.0)
           (0.0 20.0)
  end
  begin
     id 18 
     name lhumerus
     direction 1 -4.48967e-011 -2.79996e-027   
     length 5.64147   
     axis 180 -30 -90   XYZ
    dof rx ry rz
    limits (-60.0 90.0)
           (-90.0 90.0)
           (-90.0 90.0)
  end
  begin
     id 19
     name lradius
     direction 1 -4.48976e-011 -9.5122e-027   
     length 2.86444   
     axis 180 -30 -90   XYZ
    dof rx
    limits (-10.0 170.0)
  end
  begin
     id 20
     name lwrist
     direction 1 -4.48983e-011 -1.24047e-026   
     length 1.43222   
     axis 9.05591e-015 90 90   XYZ
    dof ry
    limits (-180.0 0.0)
 end
  begin
     id 21 
     name lhand
     direction 1 -4.4892e-011 -2.48094e-026   
     length 0.722123   
     axis 1.58305e-014 90 90   XYZ
    dof rx rz
    limits (-90.0 90.0)
           (-45.0 45.0)
  end
  begin
     id 22 
     name lfingers
     direction 1 -4.48895e-011 -4.96187e-026   
     length 0.582194   
     axis 3.1661e-014 90 90   XYZ
    dof rx
    limits (0.0 90.0)
  end
  begin
     id 23
     name lthumb
     direction 0.707107 -6.34961e-011 0.707107   
     length 0.835918   
     axis -90 45 2.85299e-015   XYZ
    dof rx rz
    limits (-45.0 45.0)
           (-45.0 45.0)
  end
  begin
     id 24 
     name rclavicle
     direction -0.932635 0.324218 -0.15835   
     length 3.65819  
     axis 0 0 0   XYZ 
    dof ry rz
    limits (-10.0 20.0)
           (-20.0 0.0)
  end
  begin
     id 25 
     name rhumerus
     direction -1 -4.48965e-011 -4.02296e-027  
     length 5.44729   
     axis 180 30 90   XYZ
    dof rx ry rz
    limits (-90.0 60.0)
           (-90.0 90.0)
           (-90.0 90.0)
  end
  begin
     id 26 
     name rradius
     direction -1 -4.48957e-011 -8.81087e-027   
     length 3.08821   
     axis 180 30 90   XYZ
    dof rx
    limits (-10.0 170.0)
  end
  begin
     id 27 
     name rwrist
     direction -1 -4.49015e-011 -1.24047e-026   
     length 1.5441   
     axis 9.05591e-015 -90 -90   XYZ
    dof ry
    limits (-180.0 0.0)
  end
  begin
     id 28
     name rhand
     direction -1 -4.4891e-011 -2.48094e-026   
     length 0.821049   
     axis 1.58305e-014 -90 -90   XYZ
    dof rx rz
    limits (-90.0 90.0)
           (-45.0 45.0)
  end
  begin
     id 29
     name rfingers
     direction -1 -4.48985e-011 -4.96187e-026   
     length 0.661951   
     axis 3.1661e-014 -90 -90   XYZ
    dof rx
    limits (0.0 90.0)
  end
  begin
     id 30
     name rthumb
     direction -0.707107 -6.34906e-011 0.707107   
     length 0.950433   
     axis -90 -45 -2.85299e-015   XYZ
    dof rx rz
    limits (-45.0 45.0)
           (-45.0 45.0)
  end
:hierarchy
  begin
    root lhipjoint rhipjoint lowerback
    lhipjoint lfemur
    lfemur ltibia
    ltibia lfoot
    lfoot ltoes
    rhipjoint rfemur
    rfemur rtibia
    rtibia rfoot
    rfoot rtoes
    lowerback upperback
    upperback thorax
    thorax lowerneck lclavicle rclavicle
    lowerneck upperneck
    upperneck head
    lclavicle lhumerus
    lhumerus lradius
    lradius lwrist
    lwrist lhand lthumb
    lhand lfingers
    rclavicle rhumerus
    rhumerus rradius
    rradius rwrist
    rwrist rhand rthumb
    rhand rfingers
  end

#!OML:ASF F:\VICON\USERDATA\INSTALL\rory3\rory3.ASF
:FULLY-SPECIFIED
:DEGREES
485
root 3.41032 18.1444 -0.479336 -3.31505 54.9571 -12.5948
lowerback 3.50528 -5.409 4.24286
upperback -4.71497 -6.58937 4.93867
thorax -6.796 -3.29381 3.43091
lowerneck 18.247 -22.0896 -7.5851
upperneck -20.2767 -27.9219 22.6306
head -4.52449 -15.4028 9.85082
rclavicle -1.07269e-013 -3.02153e-014
rhumerus 2.96568 49.0969 -93.4861
rradius 116.111
rwrist 13.7209
rhand 30.1542 -1.13554
rfingers 7.12502
rthumb 53.8455 -20.0775
lclavicle -1.07269e-013 -3.02153e-014
lhumerus -42.3303 -9.96546 91.8339
lradius 139.43
lwrist 21.5961
lhand -20.5774 20.6823
lfingers 7.12502
lthumb 5.78241 50.5834
rfemur -18.5027 4.15635 23.9646
rtibia 20.786
rfoot 11.7115 11.932
rtoes -0.0181669
lfemur 6.03628 34.4251 -14.7629
ltibia 0
lfoot -14.41 -0.615569
ltoes 6.45673
486
root 3.40449 18.1423 -0.48319 -3.4463 54.9234 -12.7465
lowerback 3.51486 -5.42137 4.29821
upperback -4.70998 -6.59862 4.97614
thorax -6.79851 -3.2996 3.44179
lowerneck 18.2204 -22.0926 -7.66565
upperneck -20.2222 -27.9575 22.608
head -4.48977 -15.4123 9.8379
rclavicle 1.85118e-015 2.78299e-014
rhumerus 2.95942 49.1242 -93.4669
rradius 116.029
rwrist 13.8138
rhand 30.1607 -1.11716
rfingers 7.12502
rthumb 53.8514 -20.0552
lclavicle 1.85118e-015 2.78299e-014
lhumerus -42.2741 -9.96602 91.8604
lradius 139.411
lwrist 21.5494
lhand -20.4301 20.6611
lfingers 7.12502
lthumb 5.92456 50.5583
rfemur -18.4995 4.24693 24.0612
rtibia 20.7254
rfoot 11.7691 11.7745
rtoes 0.383613
lfemur 6.01563 34.4476 -14.6746
ltibia 6.36111e-015
lfoot -14.4216 -0.590174
ltoes 6.34763
487
root 3.40024 18.1416 -0.486991 -3.54536 54.9107 -12.8061
lowerback 3.53102 -5.43578 4.34023
upperback -4.6766 -6.61732 4.95579
thorax -6.77922 -3.31151 3.39866
lowerneck 18.1538 -22.0969 -7.65144
upperneck -20.1426 -27.9741 22.5574
head -4.46291 -15.4132 9.80456
rclavicle -8.4732e-015 -5.00937e-014
rhumerus 3.02937 49.1148 -93.423
rradius 115.93
rwrist 13.9465
rhand 30.1113 -1.06685
rfingers 7.12502
rthumb 53.807 -20.0345
lclavicle -8.4732e-015 -5.00937e-014
lhumerus -42.2108 -10.0011 91.7948
lradius 139.395
lwrist 21.5871
lhand -20.2664 20.6186
lfingers 7.12502
lthumb 6.08267 50.5113
rfemur -18.4327 4.18094 24.1095
rtibia 20.653
rfoot 11.9168 11.7399
rtoes 0.860958
lfemur 6.05817 34.4477 -14.617
ltibia 6.36111e-015
lfoot -14.4224 -0.543446
ltoes 6.44908
488
root 3.39687 18.143 -0.489199 -3.7456 54.8667 -13.0052
lowerback 3.52985 -5.44945 4.47932
upperback -4.63969 -6.62831 4.94582
thorax -6.75711 -3.32361 3.31115
lowerneck 18.1238 -22.0656 -7.66443
upperneck -20.0856 -27.935 22.5883
head -4.43979 -15.3955 9.80514
rclavicle -1.24793e-013 -8.34896e-015
rhumerus 3.1036 49.1233 -93.3903
rradius 115.911
rwrist 13.9447
rhand 30.1761 -1.19439
rfingers 7.12502
rthumb 53.8652 -20.1232
lclavicle -1.24793e-013 -8.34896e-015
lhumerus -42.1851 -10.0578 91.7176
lradius 139.414
lwrist 21.6655
lhand -20.2125 20.6502
lfingers 7.12502
lthumb 6.1347 50.5414
rfemur -18.3679 4.21714 24.2406
rtibia 20.5746
rfoot 11.9331 11.7187
rtoes 0.794365
lfemur 6.09912 34.4749 -14.4654
ltibia 4.77083e-015
lfoot -14.4307 -0.477271
ltoes 6.0984
489
root 3.39418 18.144 -0.491207 -3.84485 54.851 -13.068
lowerback 3.56218 -5.49121 4.48582
upperback -4.6291 -6.68134 4.95873
thorax -6.76291 -3.34961 3.32913
lowerneck 18.0921 -22.0302 -7.722
upperneck -19.9661 -27.9187 22.5499
head -4.39863 -15.3786 9.78255
rclavicle 1.05418e-014 -5.56597e-015
rhumerus 3.06638 49.2421 -93.3871
rradius 115.945
rwrist 13.8766
rhand 30.2309 -1.31747
rfingers 7.12502
rthumb 53.9144 -20.2132
lclavicle 1.05418e-014 -5.56597e-015
lhumerus -42.1988 -9.95675 91.6588
lradius 139.416
lwrist 21.6931
lhand -20.1695 20.648
lfingers 7.12502
lthumb 6.17621 50.538
rfemur -18.3096 4.31476 24.2635
rtibia 20.5469
rfoot 11.9033 11.6264
rtoes 0.897689
lfemur 6.1559 34.4775 -14.3924
ltibia -3.18055e-015
lfoot -14.449 -0.476576
ltoes 6.00844
490
root 3.3904 18.1432 -0.493032 -3.83874 54.8018 -13.0105
lowerback 3.59671 -5.50609 4.41748
upperback -4.62226 -6.70495 4.95442
thorax -6.76712 -3.35832 3.36705
lowerneck 18.0358 -22.026 -7.77211
upperneck -19.8293 -27.9463 22.4977
head -4.34494 -15.3813 9.74759
rclavicle -1.20513e-014 -2.98177e-014
rhumerus 2.98682 49.2862 -93.4153
rradius 115.945
rwrist 13.8995
rhand 30.228 -1.25577
rfingers 7.12502
rthumb 53.9118 -20.1532
lclavicle -1.20513e-014 -2.98177e-014
lhumerus -42.211 -9.89902 91.6078
lradius 139.412
lwrist 21.7855
lhand -20.1877 20.5372
lfingers 7.12502
lthumb 6.15858 50.4277
rfemur -18.2823 4.33484 24.2418
rtibia 20.5386
rfoot 11.919 11.631
rtoes 0.754149
lfemur 6.21598 34.5183 -14.393
ltibia 4.77083e-015
lfoot -14.4688 -0.488478
ltoes 6.15209
491
root 3.38659 18.1424 -0.494208 -3.79789 54.7437 -12.9455
lowerback 3.54809 -5.4899 4.34757
upperback -4.58168 -6.69689 4.92934
thorax -6.69 -3.35263 3.36828
lowerneck 18.0294 -22.05 -7.70504
upperneck -19.8841 -27.9541 22.5139
head -4.3668 -15.3906 9.75188
rclavicle 3.33026e-014 3.61788e-014
rhumerus 3.07229 49.2112 -93.342
rradius 115.959
rwrist 13.904
rhand 30.3228 -1.25193
rfingers 7.12502
rthumb 53.9969 -20.0921
lclavicle 3.33026e-014 3.61788e-014
lhumerus -42.1575 -9.93399 91.5818
lradius 139.396
lwrist 21.8407
lhand -20.1954 20.6004
lfingers 7.12502
lthumb 6.15114 50.4911
rfemur -18.2993 4.40018 24.2068
rtibia 20.5524
rfoot 11.9466 11.6397
rtoes 0.736623
lfemur 6.24485 34.571 -14.4143
ltibia -1.59028e-015
lfoot -14.4693 -0.537822
ltoes 6.44168
